<svg width="17" height="16" viewBox="0 0 17 16" fill="none" xmlns="http://www.w3.org/2000/svg">
<g id="CalendarBlank">
<path id="Vector" d="M13.25 2H11.75V1.5C11.75 1.36739 11.6973 1.24021 11.6036 1.14645C11.5098 1.05268 11.3826 1 11.25 1C11.1174 1 10.9902 1.05268 10.8964 1.14645C10.8027 1.24021 10.75 1.36739 10.75 1.5V2H5.75V1.5C5.75 1.36739 5.69732 1.24021 5.60355 1.14645C5.50979 1.05268 5.38261 1 5.25 1C5.11739 1 4.99021 1.05268 4.89645 1.14645C4.80268 1.24021 4.75 1.36739 4.75 1.5V2H3.25C2.98478 2 2.73043 2.10536 2.54289 2.29289C2.35536 2.48043 2.25 2.73478 2.25 3V13C2.25 13.2652 2.35536 13.5196 2.54289 13.7071C2.73043 13.8946 2.98478 14 3.25 14H13.25C13.5152 14 13.7696 13.8946 13.9571 13.7071C14.1446 13.5196 14.25 13.2652 14.25 13V3C14.25 2.73478 14.1446 2.48043 13.9571 2.29289C13.7696 2.10536 13.5152 2 13.25 2ZM4.75 3V3.5C4.75 3.63261 4.80268 3.75979 4.89645 3.85355C4.99021 3.94732 5.11739 4 5.25 4C5.38261 4 5.50979 3.94732 5.60355 3.85355C5.69732 3.75979 5.75 3.63261 5.75 3.5V3H10.75V3.5C10.75 3.63261 10.8027 3.75979 10.8964 3.85355C10.9902 3.94732 11.1174 4 11.25 4C11.3826 4 11.5098 3.94732 11.6036 3.85355C11.6973 3.75979 11.75 3.63261 11.75 3.5V3H13.25V5H3.25V3H4.75ZM13.25 13H3.25V6H13.25V13Z" fill="#667085"/>
</g>
</svg>
