<svg width="16" height="16" viewBox="0 0 16 16" fill="none" xmlns="http://www.w3.org/2000/svg">
<path d="M8.33333 1.33331H10.1333C11.2534 1.33331 11.8135 1.33331 12.2413 1.5513C12.6176 1.74305 12.9236 2.04901 13.1153 2.42533C13.3333 2.85316 13.3333 3.41321 13.3333 4.53331V11.4666C13.3333 12.5868 13.3333 13.1468 13.1153 13.5746C12.9236 13.951 12.6176 14.2569 12.2413 14.4487C11.8135 14.6666 11.2534 14.6666 10.1333 14.6666H5.86667C4.74656 14.6666 4.18651 14.6666 3.75869 14.4487C3.38236 14.2569 3.0764 13.951 2.88465 13.5746C2.66667 13.1468 2.66667 12.5868 2.66667 11.4666V11M10.6667 8.66665H7.66667M10.6667 5.99998H8.33333M10.6667 11.3333H5.33333M4 6.66665V2.99998C4 2.44769 4.44772 1.99998 5 1.99998C5.55228 1.99998 6 2.44769 6 2.99998V6.66665C6 7.77122 5.10457 8.66665 4 8.66665C2.89543 8.66665 2 7.77122 2 6.66665V3.99998" stroke="#667085" stroke-linecap="round" stroke-linejoin="round"/>
</svg>
