<svg width="17" height="16" viewBox="0 0 17 16" fill="none" xmlns="http://www.w3.org/2000/svg">
<g id="GenderFemale">
<path id="Vector" d="M13.5 5.99994C13.5 5.03235 13.2192 4.08556 12.6918 3.27438C12.1643 2.4632 11.4128 1.82248 10.5284 1.42994C9.64406 1.03741 8.66477 0.909907 7.70936 1.06291C6.75395 1.21591 5.86345 1.64284 5.14588 2.29192C4.4283 2.94101 3.91447 3.78435 3.6667 4.71968C3.41894 5.655 3.44788 6.64213 3.75003 7.56133C4.05217 8.48053 4.61453 9.29232 5.36891 9.89824C6.12328 10.5042 7.03726 10.8782 8 10.9749V12.4999H6C5.86739 12.4999 5.74022 12.5526 5.64645 12.6464C5.55268 12.7402 5.5 12.8673 5.5 12.9999C5.5 13.1325 5.55268 13.2597 5.64645 13.3535C5.74022 13.4473 5.86739 13.4999 6 13.4999H8V14.9999C8 15.1325 8.05268 15.2597 8.14645 15.3535C8.24021 15.4473 8.36739 15.4999 8.5 15.4999C8.63261 15.4999 8.75979 15.4473 8.85355 15.3535C8.94732 15.2597 9 15.1325 9 14.9999V13.4999H11C11.1326 13.4999 11.2598 13.4473 11.3536 13.3535C11.4473 13.2597 11.5 13.1325 11.5 12.9999C11.5 12.8673 11.4473 12.7402 11.3536 12.6464C11.2598 12.5526 11.1326 12.4999 11 12.4999H9V10.9749C10.2327 10.8495 11.3751 10.2714 12.2063 9.35248C13.0375 8.43354 13.4985 7.23903 13.5 5.99994ZM4.5 5.99994C4.5 5.20881 4.7346 4.43546 5.17412 3.77766C5.61365 3.11986 6.23836 2.60717 6.96927 2.30442C7.70017 2.00167 8.50444 1.92246 9.28036 2.0768C10.0563 2.23114 10.769 2.6121 11.3284 3.17151C11.8878 3.73092 12.2688 4.44365 12.4231 5.21958C12.5775 5.9955 12.4983 6.79977 12.1955 7.53067C11.8928 8.26158 11.3801 8.88629 10.7223 9.32582C10.0645 9.76534 9.29113 9.99994 8.5 9.99994C7.43949 9.99878 6.42275 9.57698 5.67285 8.82709C4.92296 8.07719 4.50116 7.06045 4.5 5.99994Z" fill="#667085"/>
</g>
</svg>
